# xmcd
#
# Track frame offsets:
#	150
#	10608
#	27173
#	34314
#	48120
#	58952
#	69869
#	83181
#	96889
#	108196
#	123018
#	133207
#	144969
#	154343
#
# Disc length: 2209
#
# Revision: 3
# Processed by: cddbd v1.5.2PL0 Copyright (c) Steve Scherf et al.
# Submitted via: Broken Cross Disk Manager 3.94.2201
#
DISCID=b0089f0e
DTITLE=Dale Watson - The Truckin' Sessions
DYEAR=1998
DGENRE=Country
TTITLE0=Good Luck 'N' Good Truckin' Tonite
TTITLE1=Big Wheels Keep Rollin'
TTITLE2=Heaven In Baltimore
TTITLE3=Have You Got It On
TTITLE4=Makin' Up Time
TTITLE5=Flat Tire
TTITLE6=Drag Along and Tag Along
TTITLE7=Exit 109
TTITLE8=Help Me Joe
TTITLE9=Loose Nut Behind The Wheel
TTITLE10=You've Got A Long Way To Go
TTITLE11=Longhorn Suburban
TTITLE12=I'm Fixin To Have Me A Breakdown
TTITLE13=I Gotta Get Home To My Baby
EXTD=
EXTT0=
EXTT1=
EXTT2=
EXTT3=
EXTT4=
EXTT5=
EXTT6=
EXTT7=
EXTT8=
EXTT9=
EXTT10=
EXTT11=
EXTT12=
EXTT13=
PLAYORDER=
